<svg width="122" height="79" viewBox="0 0 122 79" fill="none" xmlns="http://www.w3.org/2000/svg">
<path d="M61.375 38.25V38.0625L51.625 25.875C51.625 25.875 49.375 26.0625 46.9375 28.6875C45.25 30.375 1.5625 73.5 1.375 73.875C0.0625 75.75 1.75 75 4.375 74.0625C4.5625 74.0625 25.75 67.3125 25.75 67.3125C25.9375 67.125 25.75 67.3125 25.9375 67.125C25.75 66.1875 25.75 62.25 25.75 61.875C25.5625 60.9375 26.125 60.75 27.0625 60.375L44.3125 54C44.5 53.8125 61 38.625 61.375 38.25ZM91.375 60.9375C93.8125 63.9375 95.125 63.375 97.1875 62.625C97.75 62.4375 118.75 53.625 119.125 53.4375C120.625 52.6875 118.938 50.25 117.812 49.125C117.438 48.5625 79.375 3 79 2.4375C77.125 0.1875 76.375 0 71.875 0C69.8125 0 51.8125 0.1875 49.9375 0.1875C46.375 0.1875 43.75 0.1875 46.375 3.375C47.875 5.0625 90.25 59.625 91.375 60.9375ZM119.875 61.125C119.5 61.125 115.375 60.1875 112.75 59.8125C112.75 59.8125 91.1875 69.1875 90.8125 69.5625C87.8125 70.875 85.75 68.8125 83.875 66.75L73.1875 52.875C72.25 52.6875 61.9375 51 61 51.1875C60.4375 51.1875 59.125 51.1875 58.1875 51.75C57.4375 52.125 31 61.5 30.0625 61.875C29.125 62.25 28 62.625 28 63.375C28 63.75 28.375 63.75 28.9375 63.9375C29.3125 64.125 85.375 76.6875 86.6875 76.875C89.5 77.625 93.8125 78.9375 96.625 77.25C97 77.0625 119.875 63 120.25 62.625C121.375 61.875 121 61.5 119.875 61.125Z" fill="#D9D7D7"/>
</svg>
