<svg width="120" height="77" viewBox="0 0 120 77" fill="none" xmlns="http://www.w3.org/2000/svg">
<path d="M16.3125 0.125H0V76.0625H18.75C9.375 66.125 3.9375 52.625 3.9375 36.3125C3.9375 21.875 8.4375 9.5 16.3125 0.125ZM60.9375 2C52.3125 2 45 8.1875 44.25 17.5625H76.125C75.9375 8.1875 69.5625 2 60.9375 2ZM104.25 0.125C110.062 8.1875 113.438 18.5 112.875 30.6875C113.062 31.8125 113.062 32.75 112.875 35.1875H43.125C43.125 55.8125 50.4375 71.75 69 71.75C81.9375 71.75 91.125 62.1875 97.5 51.875L115.688 60.875C112.312 66.6875 108.75 71.75 104.812 76.0625H120V0.125H104.25Z" fill="#D9D7D7"/>
</svg>
