<svg width="121" height="72" viewBox="0 0 121 72" fill="none" xmlns="http://www.w3.org/2000/svg">
<path d="M42.0625 52.875C41.6875 53.25 40 54.5625 41.875 57.375C42.8125 58.5 44.6875 59.8125 46 58.5C47.3125 57.5625 47.5 56.0625 46 54.1875C45.0625 52.875 43.375 51.75 42.0625 52.875ZM105.062 67.125C105.062 67.5 105.062 67.5 105.25 67.125C105.625 66.375 106 65.25 106.188 63.375C106.75 56.25 98.6875 50.0625 87.25 48.75C76.9375 47.625 63.8125 50.4375 51.8125 60.1875V60.375C52.1875 61.3125 52.75 62.4375 52.375 64.3125L52.5625 64.5C64.5625 53.4375 77.125 49.875 87.0625 50.625C98.125 51.375 105.812 57 105.812 63.375C105.812 65.25 105.438 66.375 105.062 67.125ZM74.5 33.1875C74.6875 34.5 75.25 35.0625 76.1875 35.0625C77.125 35.25 77.875 34.6875 78.0625 33.9375C78.25 33.1875 78.625 28.3125 78.625 28.3125C78.625 28.3125 76.375 29.625 75.8125 30.1875C75.0625 30.9375 74.3125 31.875 74.5 33.1875ZM65.125 4.875C26.6875 4.875 3.4375 30.5625 1 33.375C0.8125 33.375 0.8125 33.375 1.1875 33.5625C12.625 36.75 30.4375 48.75 37.9375 71.4375H38.125C48.625 58.5 64.5625 47.4375 82.5625 47.4375C97.75 47.4375 106.938 55.5 106.938 62.625C106.938 66 105.812 68.8125 102.812 71.25C102.812 71.4375 102.812 71.4375 103 71.4375C105.812 69.375 108.062 66 108.062 62.4375C108.062 58.125 105.812 55.125 105.812 55.125C107.125 56.625 107.875 58.3125 107.875 58.3125C109 50.625 112.938 46.5 112.938 46.5C112.562 44.8125 111.625 43.3125 111.625 43.3125C113.125 44.8125 114.438 48.375 114.438 51C114.438 52.875 113.688 55.3125 112 57C113.5 56.0625 115.188 54 115.188 49.875C115.188 47.0625 114.25 45.1875 114.25 45.1875C115.375 44.0625 116.312 43.3125 117.25 42.9375C117.438 43.5 117.625 44.625 117.625 45.75C117.625 45.9375 117.812 46.125 118 45.75C118 44.625 117.812 42.5625 117.812 42.5625C118.938 42 119.688 41.8125 119.688 41.8125C116.688 21 92.6875 4.875 65.125 4.875ZM46.5625 59.0625C44.3125 60.75 41.875 60 40.75 58.3125C39.25 56.625 39.4375 53.8125 41.5 52.3125C44.3125 50.0625 46.5625 52.125 47.3125 53.25C47.5 53.4375 49.5625 56.4375 46.5625 59.0625ZM46.9375 33.5625L48.625 30.1875L50.875 43.5L48.4375 44.625L43.9375 39.1875L46.5625 34.3125L47.125 35.0625L46.9375 33.5625ZM50.3125 55.6875V55.5C50.6875 54.75 49.75 54.375 46.9375 49.6875C46.75 49.125 46.375 49.125 46.1875 49.125V48.9375C47.6875 48 49 47.0625 50.875 46.125H51.0625C51.25 46.5 51.4375 46.6875 51.625 47.0625C51.4375 47.0625 51.0625 46.875 50.6875 47.25C50.125 47.25 49.1875 47.8125 48.25 48.5625V48.75C48.625 49.3125 49 50.0625 49.375 50.625C51.25 49.5 50.875 49.875 51.625 49.125C51.8125 49.5 51.8125 49.5 52 50.25C51.4375 50.4375 51.0625 50.25 49.75 51.375C51.625 54.5625 51.8125 54.5625 52.1875 54.375C51.8125 54.75 51.0625 55.125 50.3125 55.6875ZM60.625 49.5C60.0625 49.875 59.5 50.0625 58.9375 50.4375H58.75C59.125 49.875 58.9375 49.875 56.5 44.25C56.5 44.25 54.8125 45 54.625 45.5625L54.4375 44.625V44.4375C55.75 43.6875 59.125 42.375 59.6875 42.1875L60.25 43.125C59.6875 42.9375 58.9375 43.3125 58 43.6875C60.25 49.6875 60.25 49.5 60.625 49.5ZM69.0625 46.5C68.3125 46.6875 68.125 46.6875 67.375 46.875H67.1875L67.375 46.125C67.1875 45.375 66.8125 43.875 66.625 43.5C65.875 43.6875 64.9375 44.0625 64.1875 44.25C64.375 44.8125 64.75 46.125 64.9375 46.875C65.125 47.25 65.3125 47.4375 65.5 47.4375V47.625C64.75 47.8125 64.1875 48 63.625 48.375L63.4375 48.1875C63.625 48 63.625 47.625 63.625 47.25C63.4375 46.6875 62.125 42.75 61.75 42.1875C61.75 41.8125 61.5625 41.625 61.375 41.625V41.4375C61.9375 41.25 62.5 41.0625 63.4375 40.875V41.8125C63.625 42.5625 63.8125 43.3125 64 43.6875C64.75 43.3125 65.6875 43.125 66.4375 42.9375L65.875 41.0625C65.875 40.6875 65.6875 40.5 65.5 40.3125C66.25 40.125 66.8125 39.9375 67.5625 39.9375C67.375 40.125 67.375 40.5 67.375 40.6875C67.75 42 68.3125 44.625 68.6875 45.75C68.6875 46.125 68.875 46.3125 69.0625 46.5ZM75.0625 45.1875C74.125 45.375 72.4375 45.5625 70.9375 45.9375H70.75L70.9375 45.1875C70.75 43.6875 70.375 41.625 70 40.3125C70 39.9375 69.8125 39.75 69.625 39.5625V39.375C71.5 39.1875 73.5625 39 74.3125 39H74.5C74.5 39.375 74.5 39.5625 74.6875 40.125C74.5 39.9375 73.9375 39.5625 71.6875 39.9375H71.5C71.6875 40.3125 71.6875 41.25 71.875 41.8125V42C73.75 41.625 72.8125 41.8125 73.9375 41.4375C73.9375 41.8125 73.9375 41.8125 73.9375 42.375C73 42.1875 73.375 42.1875 71.875 42.375V42.5625C71.875 42.9375 72.25 44.25 72.25 44.8125H72.4375C72.625 45 75.0625 44.8125 75.4375 44.0625C75.25 44.4375 75.25 44.8125 75.0625 45.1875ZM77.125 36.75C76.375 37.3125 75.625 37.3125 75.0625 37.3125C75.0625 37.3125 73 37.5 71.875 35.4375C70.5625 33.375 71.6875 30.75 72.8125 29.625C74.5 27.9375 77.125 27.5625 78.25 26.4375C79.75 24.375 75.8125 22.125 72.625 25.3125L72.0625 24.75L73.1875 21.75C77.875 21.375 81.625 21.1875 82.5625 24.75C82.75 25.3125 82.5625 26.4375 82.375 27C82.375 27.5625 82.1875 30.5625 82 31.3125C82 32.0625 82 34.6875 82 35.25C82 35.625 82 36 82.1875 36.1875C82.5625 36.5625 83.3125 36.5625 83.3125 36.5625L83.125 37.5C80.875 37.3125 81.25 37.3125 79.375 37.3125C78.625 36.1875 78.8125 36.5625 78.625 35.8125C78.625 35.8125 77.6875 36.5625 77.125 36.75ZM84.0625 40.875C82.9375 38.8125 80.5 39.375 80.125 41.8125C79.5625 45 82.75 45.5625 83.875 43.6875H84.0625C83.875 44.0625 83.6875 44.8125 83.6875 45H83.5C81.625 46.3125 78.25 44.625 78.8125 41.625C79.1875 39.5625 81.4375 38.0625 84.0625 39.75H84.25C84.25 39.9375 84.0625 40.5 84.0625 40.875ZM85.1875 24.375V23.0625C85.375 23.0625 88.9375 23.8125 90.4375 24.5625L90.0625 27.75C90.0625 27.75 92.125 26.0625 93.0625 25.6875C94 25.5 95.875 27.1875 95.875 27.1875L93.625 29.25C91.375 28.125 90.0625 29.25 89.875 29.4375C88.75 36.5625 88.1875 37.3125 90.625 38.0625V39C87.25 38.0625 87.0625 38.0625 83.6875 37.5L83.875 36.5625C85.1875 36.5625 85.1875 35.625 85.1875 35.4375C85.1875 35.4375 86.125 25.5 86.125 24.9375C86.125 24.5625 85.1875 24.375 85.1875 24.375ZM87.25 45.75C85.75 45.375 84.625 43.6875 85.1875 42C85.9375 40.125 87.625 39.5625 88.75 39.9375C90.4375 40.5 91.1875 42.1875 90.8125 43.6875C90.25 45.375 89.125 46.3125 87.25 45.75ZM95.125 47.625C94.75 47.4375 93.8125 47.25 93.625 47.0625L93.8125 46.6875C94 45.1875 94 45.375 93.8125 45.1875C93.0625 45 92.6875 44.8125 92.5 44.8125C92.3125 45.1875 92.125 45.5625 91.9375 45.75L91.75 46.5C91.5625 46.5 91 46.3125 90.625 46.3125V46.125L91.1875 45.75C91.75 45 92.875 43.125 93.625 42V41.625H93.8125C94.1875 41.8125 94.75 42 95.3125 42.1875C95.3125 42.1875 95.3125 41.8125 94.9375 46.875C94.9375 47.25 95.125 47.4375 95.125 47.625ZM94.375 30.75C96.4375 27.375 100 27.75 100.75 30.1875L102.062 25.125C102.625 24 101.5 23.4375 101.312 23.0625L101.688 22.5C103.938 24.375 104.688 25.125 105.812 26.25C100.938 39.9375 100 41.4375 101.125 42L100.938 42.9375C99.625 42.1875 99.25 42 97.5625 41.25L97.9375 39.9375C97.9375 39.9375 97.1875 40.6875 96.0625 40.6875C92.5 40.5 91.75 34.6875 94.375 30.75ZM99.8125 45.5625C99.8125 44.625 98.6875 44.25 98.3125 44.625C98.125 45 98.5 45.5625 98.875 46.3125C99.0625 46.6875 99.4375 47.4375 99.0625 48C98.5 49.125 96.8125 48.9375 96.25 47.8125C96.25 47.8125 96.0625 47.8125 96.4375 46.875H96.625C96.625 48 97.75 48.75 98.3125 47.8125C98.5 47.4375 98.125 46.875 97.75 46.3125C97.5625 45.75 97.1875 45.1875 97.5625 44.4375C97.9375 43.5 99.625 43.6875 100.188 45L99.8125 45.5625ZM103.75 48.1875C103.375 47.625 103.562 47.8125 103 47.25H102.812C102.438 48 101.875 49.3125 101.312 50.25C100.938 50.8125 101.125 51 101.125 51V51.1875L100 50.25L100.375 49.875C100.938 48.9375 101.688 47.625 102.062 46.6875C101.688 46.3125 101.875 46.5 100.938 46.3125L101.688 45.75C102.438 46.125 103.562 47.0625 103.938 47.4375L103.75 48.1875ZM108.812 39.9375L108.25 39.375C108.438 38.8125 108.625 38.4375 108.812 37.875C108.812 36 106.562 35.625 106.562 36.9375C106.562 37.875 108.062 40.5 108.062 42.1875C108.062 44.0625 106.938 45.1875 105.438 45.1875C103.938 45.375 101.688 43.3125 101.688 43.3125L102.625 40.5L103.188 41.0625C102.625 44.25 106.375 44.8125 105.625 42C105.438 41.25 102.062 35.625 106 34.875C108.625 34.3125 110.312 37.875 110.312 37.875L108.812 39.9375ZM115.562 37.875C113.5 32.25 104.125 14.0625 79.5625 13.6875C69.625 13.5 61.9375 16.5 54.625 20.8125L70.75 18.9375L53.5 22.875L58.375 26.625L57.625 23.4375C58.9375 23.25 64.9375 21.9375 70 21.75L65.875 36.9375C68.5 36.75 69.4375 35.25 69.625 32.625L70.5625 32.4375V37.5C66.4375 38.0625 63.625 38.625 61.375 39.375L63.8125 31.125L52.1875 24.375L52.75 25.875L54.625 26.8125C55.75 30.1875 58.1875 37.3125 58.375 37.875C58.75 38.625 58.9375 38.8125 60.625 38.625L60.8125 39.5625C57.8125 40.5 56.5 41.0625 53.5 42.1875L53.125 41.4375C53.875 40.875 54.8125 40.6875 54.0625 39C49.75 27.1875 50.125 28.125 49.9375 27.75L50.3125 27L56.5 39.5625C55.9375 37.3125 56.875 39.9375 50.3125 24.75L42.625 41.4375L43.375 38.8125L36.625 30.9375L41.875 48.375L39.625 50.0625C18.8125 30.9375 19.9375 31.5 18.4375 31.5C17.3125 31.5 15.8125 32.625 15.8125 32.625L14.875 31.3125C20.6875 27 20.875 26.8125 25.9375 23.4375L26.6875 24.75C26.6875 24.75 25.5625 25.5 25.1875 26.0625C24.0625 27.75 25.5625 28.5 36.8125 40.3125L33.25 29.25L40.75 27.375L45.4375 33L46.375 30.75L45.4375 26.0625L47.875 25.5V26.0625L48.625 24L31 29.625L33.0625 28.6875L30.4375 20.625L33.8125 18.9375L39.4375 25.6875L44.6875 23.25C44.5 21.9375 44.3125 20.625 43.9375 19.6875L47.125 22.3125L48.0625 21.75L36.8125 13.875L41.3125 15.9375C44.6875 14.8125 46 14.625 47.3125 14.25L47.6875 16.3125C45.4375 18.5625 48.0625 19.3125 49 19.875L46.375 8.4375L48.625 13.6875C49.5625 13.5 50.125 13.3125 50.125 13.3125L50.5 15C50.5 15 49.9375 15.1875 49.375 15.375L51.0625 19.3125L57.4375 6.9375L53.5 18.375C61.375 13.875 68.6875 11.4375 78.25 11.625C90.8125 11.8125 109.562 19.3125 115.75 37.875C115.938 38.25 115.75 38.4375 115.562 37.875ZM39.0625 16.6875C39.0625 16.6875 39.4375 16.5 39.8125 16.5L41.6875 17.8125C41.5 17.8125 40.9375 17.8125 39.4375 18.375L39.0625 16.6875ZM66.0625 23.8125C65.6875 23.8125 61 23.0625 59.6875 27.75L63.8125 30.9375L66.0625 23.8125ZM60.625 0.75C49.75 0.75 40.75 3 39.0625 3.375V3.5625C40.5625 3.9375 41.6875 4.3125 43 5.8125H43.375C44.5 5.4375 52.5625 3.1875 64 3.1875C97.75 3.1875 120.625 25.125 120.625 45V46.875C120.625 47.25 120.625 47.4375 120.812 47.0625C120.812 46.6875 121 45.375 121 43.3125C121 27.5625 102.812 0.75 60.625 0.75ZM100.188 32.4375C100.375 31.3125 100.188 30.1875 98.875 30C97 29.8125 95.875 34.5 95.6875 36.375C95.5 37.3125 95.3125 39.1875 96.8125 39.1875C97.5625 39.1875 98.5 39 100.188 32.4375ZM88.5625 40.5C88.1875 40.3125 86.875 40.3125 86.3125 42.5625C85.9375 43.6875 86.3125 45 87.4375 45.1875C88.1875 45.375 89.125 45.375 89.6875 43.3125C90.0625 41.4375 89.3125 40.6875 88.5625 40.5ZM93.0625 44.4375C93.25 44.625 93.625 44.625 94 44.8125C94 44.4375 94.1875 43.3125 94.1875 42.5625C94 42.75 93.25 44.0625 93.0625 44.4375Z" fill="#D9D7D7"/>
</svg>
