<svg width="98" height="94" viewBox="0 0 98 94" fill="none" xmlns="http://www.w3.org/2000/svg">
<path d="M1.375 76.4375C0.4375 77.75 1 79.625 2.3125 80.5625L22.1875 92.75C23.6875 93.6875 25.5625 93.125 26.5 91.8125C39.0625 70.625 41.5 73.8125 79.1875 91.625C80.6875 92.375 82.375 91.625 83.125 90.125C83.125 90.125 83.125 90.125 83.3125 90.125L92.6875 68.75C93.4375 67.25 92.6875 65.375 91.1875 64.625C87.0625 62.75 78.8125 58.8125 71.3125 55.25C24.8125 32.5625 9.25 63.875 1.375 76.4375ZM96.4375 17.9375C97.375 16.4375 96.8125 14.5625 95.5 13.625L75.625 1.4375C74.125 0.5 72.25 0.875 71.3125 2.375C71.3125 2.375 71.3125 2.375 71.3125 2.5625C58.5625 23.5625 56.125 20.375 18.625 2.75C17.125 2 15.25 2.5625 14.5 4.0625V4.25L5.125 25.625C4.375 27.125 5.125 28.8125 6.625 29.5625C10.75 31.4375 19 35.375 26.5 38.9375C73 61.4375 88.5625 30.5 96.4375 17.9375Z" fill="#D9D7D7"/>
</svg>
