<svg width="30" height="25" viewBox="0 0 30 25" fill="none" xmlns="http://www.w3.org/2000/svg">
<path d="M13.9219 11.5781C14.2031 11.8594 14.5781 12 15 12C15.375 12 15.75 11.8594 16.0312 11.5781L20.5312 7.07812C21.1406 6.46875 21.1406 5.53125 20.5312 4.96875L16.0312 0.46875C15.75 0.1875 15.375 0 15 0C14.5781 0 14.2031 0.1875 13.9219 0.46875L9.42188 4.96875C8.8125 5.53125 8.8125 6.51562 9.42188 7.07812L13.9219 11.5781ZM15 2.53125L18.4688 6L15 9.46875L11.5312 6L15 2.53125ZM26.8125 4.54688C24.8906 4.40625 23.25 5.95312 23.25 7.875C23.25 7.875 23.2031 9.70312 23.2031 11.4375C22.6875 11.1094 22.0312 10.875 21.375 10.875C20.2969 10.875 19.3125 11.3906 18.7031 12.1875L15.3281 16.5938C15.1875 16.7344 15.0938 16.9219 15 17.1094C14.8594 16.9219 14.7656 16.7344 14.625 16.5938L11.2969 12.1875C10.6406 11.3906 9.65625 10.875 8.625 10.875C7.92188 10.875 7.26562 11.1094 6.75 11.4375C6.75 9.70312 6.75 7.875 6.75 7.875C6.75 5.95312 5.10938 4.40625 3.14062 4.54688C1.3125 4.64062 0 6.23438 0 8.01562V16.9688C0 18.1875 0.375 19.3594 1.125 20.25L3.89062 23.7188C4.03125 23.9062 4.21875 24.0469 4.45312 24.0469H5.25C5.625 24.0469 6 23.6719 6 23.2969V22.7344L2.90625 18.8438C2.4375 18.3281 2.25 17.6719 2.25 16.9688V7.92188C2.25 7.40625 2.57812 6.89062 3.14062 6.79688C3.84375 6.65625 4.5 7.21875 4.5 7.875C4.5 7.875 4.5 12.6094 4.5 14.1094C4.5 14.4844 4.64062 14.8125 4.875 15.0938L8.4375 19.4062C8.67188 19.6875 8.95312 19.7812 9.23438 19.7812C9.51562 19.7812 9.79688 19.6875 9.98438 19.4531C10.3594 19.0781 10.3594 18.5156 10.0312 18.0938L7.73438 14.9531C7.3125 14.4844 7.40625 13.7344 7.92188 13.3594C8.10938 13.2188 8.34375 13.125 8.625 13.125C8.95312 13.125 9.28125 13.3125 9.51562 13.5938L12.8438 17.9531C13.2656 18.4688 13.5 19.125 13.5 19.7812V23.25C13.5 23.6719 13.8281 24 14.25 24H15.75C16.125 24 16.5 23.6719 16.5 23.25V19.7812C16.5 19.125 16.6875 18.4688 17.1094 17.9531L20.4844 13.5938C20.6719 13.3125 21.0469 13.125 21.375 13.125C21.6094 13.125 21.8438 13.2188 22.0312 13.3594C22.5469 13.7812 22.6406 14.4844 22.2656 14.9531L19.9219 18.0938C19.6406 18.5156 19.6406 19.0781 19.9688 19.4531C20.1562 19.6875 20.4375 19.7812 20.7188 19.7812C21 19.7812 21.3281 19.6875 21.5156 19.4062L25.125 15.0938C25.3594 14.8125 25.4531 14.4844 25.4531 14.1094C25.4531 12.6094 25.5 7.875 25.5 7.875C25.5 7.21875 26.1094 6.65625 26.8125 6.79688C27.375 6.89062 27.75 7.40625 27.75 7.92188V16.9688C27.75 17.6719 27.5156 18.3281 27.0938 18.8438L24 22.7344V23.25C24 23.6719 24.3281 24 24.75 24H25.5C25.7344 24 25.9219 23.9062 26.0625 23.7188L28.8281 20.25C29.5781 19.3594 30 18.1875 30 16.9688V8.01562C30 6.23438 28.6406 4.64062 26.8125 4.54688Z" fill="#1776AD"/>
</svg>
