<svg width="128" height="50" viewBox="0 0 128 50" fill="none" xmlns="http://www.w3.org/2000/svg">
<path d="M27.5308 40.1395C27.5757 35.5502 26.4122 31.8182 24.9322 31.8037C23.4521 31.7893 22.2159 35.4979 22.1711 40.0871C22.1262 44.6764 23.2897 48.4085 24.7697 48.4229C26.2498 48.4374 27.486 44.7288 27.5308 40.1395Z" stroke="#313131" stroke-width="0.8" stroke-miterlimit="10"/>
<path d="M18.947 39.0972C21.4661 35.2608 22.5052 31.4922 21.268 30.6798C20.0307 29.8674 16.9856 32.3188 14.4666 36.1552C11.9475 39.9916 10.9084 43.7601 12.1456 44.5726C13.3829 45.385 16.4279 42.9336 18.947 39.0972Z" stroke="#313131" stroke-width="0.8" stroke-miterlimit="10"/>
<path d="M12.2792 33.593C16.4726 31.7278 19.3843 29.1194 18.7827 27.767C18.1812 26.4146 14.2942 26.8304 10.1008 28.6957C5.90744 30.5609 2.99571 33.1693 3.59726 34.5217C4.1988 35.8741 8.08584 35.4583 12.2792 33.593Z" stroke="#313131" stroke-width="0.8" stroke-miterlimit="10"/>
<path d="M18.2794 23.9745C18.5046 22.5116 15.0099 20.7597 10.4739 20.0615C5.93777 19.3633 2.07803 19.9833 1.85287 21.4462C1.62771 22.9091 5.12239 24.6609 9.65847 25.3591C14.1945 26.0573 18.0543 25.4373 18.2794 23.9745Z" stroke="#313131" stroke-width="0.8" stroke-miterlimit="10"/>
<path d="M19.908 20.4895C20.8882 19.3805 18.895 16.0176 15.4561 12.9783C12.0172 9.93901 8.43482 8.37425 7.45464 9.48331C6.47446 10.5924 8.46766 13.9553 11.9066 16.9946C15.3455 20.0339 18.9279 21.5986 19.908 20.4895Z" stroke="#313131" stroke-width="0.8" stroke-miterlimit="10"/>
<path d="M23.1514 18.4528C24.5756 18.0498 24.7171 14.1431 23.4675 9.72704C22.2179 5.31095 20.0503 2.05771 18.6261 2.46072C17.2019 2.86373 17.0604 6.77037 18.31 11.1865C19.5596 15.6025 21.7272 18.8558 23.1514 18.4528Z" stroke="#313131" stroke-width="0.8" stroke-miterlimit="10"/>
<path d="M31.9584 11.3239C33.2949 6.9333 33.2305 3.02461 31.8145 2.5936C30.3985 2.16258 28.1672 5.37244 26.8307 9.76303C25.4943 14.1536 25.5587 18.0623 26.9747 18.4933C28.3907 18.9243 30.622 15.7145 31.9584 11.3239Z" stroke="#313131" stroke-width="0.8" stroke-miterlimit="10"/>
<path d="M38.2514 17.2565C41.7491 14.285 43.8077 10.9617 42.8493 9.83372C41.891 8.70572 38.2787 10.2002 34.7811 13.1716C31.2834 16.1431 29.2249 19.4664 30.1832 20.5944C31.1415 21.7224 34.7538 20.228 38.2514 17.2565Z" stroke="#313131" stroke-width="0.8" stroke-miterlimit="10"/>
<path d="M40.3322 25.6519C44.8812 25.0433 48.4097 23.3607 48.2134 21.8936C48.0172 20.4266 44.1704 19.7307 39.6214 20.3392C35.0725 20.9478 31.5439 22.6304 31.7402 24.0975C31.9365 25.5645 35.7832 26.2605 40.3322 25.6519Z" stroke="#313131" stroke-width="0.8" stroke-miterlimit="10"/>
<path d="M46.2004 34.941C46.8285 33.6008 43.9688 30.9355 39.813 28.9879C35.6573 27.0403 31.7792 26.548 31.1511 27.8882C30.523 29.2285 33.3827 31.8938 37.5385 33.8414C41.6942 35.7889 45.5723 36.2813 46.2004 34.941Z" stroke="#313131" stroke-width="0.8" stroke-miterlimit="10"/>
<path d="M37.4589 44.8299C38.7119 44.0421 37.7473 40.2537 35.3044 36.3684C32.8615 32.4831 29.8653 29.9722 28.6123 30.76C27.3593 31.5478 28.3239 35.3362 30.7668 39.2215C33.2097 43.1068 36.2059 45.6178 37.4589 44.8299Z" stroke="#313131" stroke-width="0.8" stroke-miterlimit="10"/>
<path d="M65.416 32.192C64.136 32.192 62.912 32 61.744 31.616C60.576 31.216 59.656 30.704 58.984 30.08L59.872 28.208C60.512 28.768 61.328 29.232 62.32 29.6C63.312 29.968 64.344 30.152 65.416 30.152C66.392 30.152 67.184 30.04 67.792 29.816C68.4 29.592 68.848 29.288 69.136 28.904C69.424 28.504 69.568 28.056 69.568 27.56C69.568 26.984 69.376 26.52 68.992 26.168C68.624 25.816 68.136 25.536 67.528 25.328C66.936 25.104 66.28 24.912 65.56 24.752C64.84 24.592 64.112 24.408 63.376 24.2C62.656 23.976 61.992 23.696 61.384 23.36C60.792 23.024 60.312 22.576 59.944 22.016C59.576 21.44 59.392 20.704 59.392 19.808C59.392 18.944 59.616 18.152 60.064 17.432C60.528 16.696 61.232 16.112 62.176 15.68C63.136 15.232 64.352 15.008 65.824 15.008C66.8 15.008 67.768 15.136 68.728 15.392C69.688 15.648 70.52 16.016 71.224 16.496L70.432 18.416C69.712 17.936 68.952 17.592 68.152 17.384C67.352 17.16 66.576 17.048 65.824 17.048C64.88 17.048 64.104 17.168 63.496 17.408C62.888 17.648 62.44 17.968 62.152 18.368C61.88 18.768 61.744 19.216 61.744 19.712C61.744 20.304 61.928 20.776 62.296 21.128C62.68 21.48 63.168 21.76 63.76 21.968C64.368 22.176 65.032 22.368 65.752 22.544C66.472 22.704 67.192 22.888 67.912 23.096C68.648 23.304 69.312 23.576 69.904 23.912C70.512 24.248 71 24.696 71.368 25.256C71.736 25.816 71.92 26.536 71.92 27.416C71.92 28.264 71.688 29.056 71.224 29.792C70.76 30.512 70.04 31.096 69.064 31.544C68.104 31.976 66.888 32.192 65.416 32.192ZM81.8823 19.16C82.9223 19.16 83.8343 19.36 84.6183 19.76C85.4183 20.16 86.0423 20.768 86.4903 21.584C86.9383 22.4 87.1623 23.432 87.1623 24.68V32H84.8583V24.944C84.8583 23.712 84.5543 22.784 83.9463 22.16C83.3543 21.536 82.5143 21.224 81.4263 21.224C80.6103 21.224 79.8983 21.384 79.2903 21.704C78.6823 22.024 78.2103 22.496 77.8743 23.12C77.5543 23.744 77.3943 24.52 77.3943 25.448V32H75.0903V14.192H77.3943V22.712L76.9383 21.8C77.3543 20.968 77.9943 20.32 78.8583 19.856C79.7223 19.392 80.7303 19.16 81.8823 19.16ZM99.3222 32V29.312L99.2022 28.808V24.224C99.2022 23.248 98.9142 22.496 98.3382 21.968C97.7782 21.424 96.9302 21.152 95.7942 21.152C95.0422 21.152 94.3062 21.28 93.5862 21.536C92.8662 21.776 92.2582 22.104 91.7622 22.52L90.8022 20.792C91.4582 20.264 92.2422 19.864 93.1542 19.592C94.0822 19.304 95.0502 19.16 96.0582 19.16C97.8022 19.16 99.1462 19.584 100.09 20.432C101.034 21.28 101.506 22.576 101.506 24.32V32H99.3222ZM95.1462 32.144C94.2022 32.144 93.3702 31.984 92.6502 31.664C91.9462 31.344 91.4022 30.904 91.0182 30.344C90.6342 29.768 90.4422 29.12 90.4422 28.4C90.4422 27.712 90.6022 27.088 90.9222 26.528C91.2582 25.968 91.7942 25.52 92.5302 25.184C93.2822 24.848 94.2902 24.68 95.5542 24.68H99.5862V26.336H95.6502C94.4982 26.336 93.7222 26.528 93.3222 26.912C92.9222 27.296 92.7222 27.76 92.7222 28.304C92.7222 28.928 92.9702 29.432 93.4662 29.816C93.9622 30.184 94.6502 30.368 95.5302 30.368C96.3942 30.368 97.1462 30.176 97.7862 29.792C98.4422 29.408 98.9142 28.848 99.2022 28.112L99.6582 29.696C99.3542 30.448 98.8182 31.048 98.0502 31.496C97.2822 31.928 96.3142 32.144 95.1462 32.144ZM105.77 32V19.28H107.978V22.736L107.762 21.872C108.114 20.992 108.706 20.32 109.538 19.856C110.37 19.392 111.394 19.16 112.61 19.16V21.392C112.514 21.376 112.418 21.368 112.322 21.368C112.242 21.368 112.162 21.368 112.082 21.368C110.85 21.368 109.874 21.736 109.154 22.472C108.434 23.208 108.074 24.272 108.074 25.664V32H105.77ZM120.996 32.144C119.636 32.144 118.436 31.864 117.396 31.304C116.372 30.744 115.572 29.976 114.996 29C114.436 28.024 114.156 26.904 114.156 25.64C114.156 24.376 114.428 23.256 114.972 22.28C115.532 21.304 116.292 20.544 117.252 20C118.228 19.44 119.324 19.16 120.54 19.16C121.772 19.16 122.86 19.432 123.804 19.976C124.748 20.52 125.484 21.288 126.012 22.28C126.556 23.256 126.828 24.4 126.828 25.712C126.828 25.808 126.82 25.92 126.804 26.048C126.804 26.176 126.796 26.296 126.78 26.408H115.956V24.752H125.58L124.644 25.328C124.66 24.512 124.492 23.784 124.14 23.144C123.788 22.504 123.3 22.008 122.676 21.656C122.068 21.288 121.356 21.104 120.54 21.104C119.74 21.104 119.028 21.288 118.404 21.656C117.78 22.008 117.292 22.512 116.94 23.168C116.588 23.808 116.412 24.544 116.412 25.376V25.76C116.412 26.608 116.604 27.368 116.988 28.04C117.388 28.696 117.94 29.208 118.644 29.576C119.348 29.944 120.156 30.128 121.068 30.128C121.82 30.128 122.5 30 123.108 29.744C123.732 29.488 124.276 29.104 124.74 28.592L126.012 30.08C125.436 30.752 124.716 31.264 123.852 31.616C123.004 31.968 122.052 32.144 120.996 32.144Z" fill="#313131"/>
</svg>
