<svg width="32" height="25" viewBox="0 0 32 25" fill="none" xmlns="http://www.w3.org/2000/svg">
<path d="M7 4.5C8.21875 4.5 9.25 3.51562 9.25 2.25C9.25 1.03125 8.21875 0 7 0C5.73438 0 4.75 1.03125 4.75 2.25C4.75 3.51562 5.73438 4.5 7 4.5ZM25 4.5C26.2188 4.5 27.25 3.51562 27.25 2.25C27.25 1.03125 26.2188 0 25 0C23.7344 0 22.75 1.03125 22.75 2.25C22.75 3.51562 23.7344 4.5 25 4.5ZM29.125 11.7656L28.2344 8.10938C28 7.26562 27.4375 6.60938 26.6406 6.23438C25.8438 5.90625 24.9531 5.95312 24.25 6.375C23.0312 7.03125 22.3281 8.57812 22.0469 9.46875L21.4844 11.1094C21.4375 11.1562 21.3906 11.25 21.2969 11.2969L20.5 11.7656V6C20.5 5.625 20.125 5.25 19.75 5.25H12.25C11.8281 5.25 11.5 5.625 11.5 6V11.7656L10.6562 11.2969C10.5625 11.25 10.5156 11.1562 10.4688 11.1094L9.90625 9.46875C9.625 8.57812 8.92188 7.03125 7.70312 6.375C7 5.95312 6.10938 5.90625 5.3125 6.23438C4.51562 6.60938 3.95312 7.26562 3.71875 8.10938L2.875 11.7656C2.59375 12.75 2.96875 13.7812 3.71875 14.4844L6.95312 17.2969C7.23438 17.5312 7.42188 17.9062 7.42188 18.2812L7.79688 22.9688C7.84375 23.3906 8.21875 24.0938 9.01562 24C9.625 23.9531 10.0938 23.4375 10.0469 22.8281L9.67188 17.6719C9.57812 16.9688 9.25 16.3125 8.73438 15.8438L6.29688 13.7344L7.42188 9.42188C7.5625 9.65625 8.35938 11.8125 8.35938 11.8125C8.54688 12.375 8.875 12.7969 9.4375 13.1719L11.1719 14.1094C11.4062 14.2031 11.6406 14.25 11.875 14.25H20.0781C20.3594 14.25 20.5938 14.2031 20.7812 14.1094L22.5156 13.1719C23.0781 12.7969 23.4062 12.375 23.5938 11.8125C23.5938 11.8125 24.3906 9.65625 24.5312 9.42188L25.7031 13.7344L23.2188 15.8438C22.7031 16.3125 22.375 16.9688 22.3281 17.6719L21.9062 22.7812C21.8594 23.4375 22.3281 23.9531 22.9375 24C23.7344 24.0938 24.1094 23.4375 24.1562 22.9688L24.5312 18.2812C24.5312 17.9062 24.7188 17.5312 25.0469 17.2969L28.2344 14.4844C29.0312 13.7812 29.3594 12.75 29.125 11.7656ZM18.25 12H13.75V7.5H18.25V12ZM30.9062 22.4531L28.375 16.3594L26.5938 17.9062L28.7969 23.3438C29.0312 23.9062 29.6875 24.1875 30.2969 23.9531C30.8594 23.7188 31.1406 23.0625 30.9062 22.4531ZM1.04688 22.4531C0.8125 23.0625 1.09375 23.7188 1.65625 23.9531C2.26562 24.1875 2.92188 23.9062 3.15625 23.3438L5.35938 17.9062L3.57812 16.3594L1.04688 22.4531Z" fill="#1776AD"/>
</svg>
