<svg width="69" height="19" viewBox="0 0 69 19" fill="none" xmlns="http://www.w3.org/2000/svg">
<path d="M7.416 18.192C6.136 18.192 4.912 18 3.744 17.616C2.576 17.216 1.656 16.704 0.984 16.08L1.872 14.208C2.512 14.768 3.328 15.232 4.32 15.6C5.312 15.968 6.344 16.152 7.416 16.152C8.392 16.152 9.184 16.04 9.792 15.816C10.4 15.592 10.848 15.288 11.136 14.904C11.424 14.504 11.568 14.056 11.568 13.56C11.568 12.984 11.376 12.52 10.992 12.168C10.624 11.816 10.136 11.536 9.528 11.328C8.936 11.104 8.28 10.912 7.56 10.752C6.84 10.592 6.112 10.408 5.376 10.2C4.656 9.976 3.992 9.696 3.384 9.36C2.792 9.024 2.312 8.576 1.944 8.016C1.576 7.44 1.392 6.704 1.392 5.808C1.392 4.944 1.616 4.152 2.064 3.432C2.528 2.696 3.232 2.112 4.176 1.68C5.136 1.232 6.352 1.008 7.824 1.008C8.8 1.008 9.768 1.136 10.728 1.392C11.688 1.648 12.52 2.016 13.224 2.496L12.432 4.416C11.712 3.936 10.952 3.592 10.152 3.384C9.352 3.16 8.576 3.048 7.824 3.048C6.88 3.048 6.104 3.168 5.496 3.408C4.888 3.648 4.44 3.968 4.152 4.368C3.88 4.768 3.744 5.216 3.744 5.712C3.744 6.304 3.928 6.776 4.296 7.128C4.68 7.48 5.168 7.76 5.76 7.968C6.368 8.176 7.032 8.368 7.752 8.544C8.472 8.704 9.192 8.888 9.912 9.096C10.648 9.304 11.312 9.576 11.904 9.912C12.512 10.248 13 10.696 13.368 11.256C13.736 11.816 13.92 12.536 13.92 13.416C13.92 14.264 13.688 15.056 13.224 15.792C12.76 16.512 12.04 17.096 11.064 17.544C10.104 17.976 8.888 18.192 7.416 18.192ZM23.8823 5.16C24.9223 5.16 25.8343 5.36 26.6183 5.76C27.4183 6.16 28.0423 6.768 28.4903 7.584C28.9383 8.4 29.1623 9.432 29.1623 10.68V18H26.8583V10.944C26.8583 9.712 26.5543 8.784 25.9463 8.16C25.3543 7.536 24.5143 7.224 23.4263 7.224C22.6103 7.224 21.8983 7.384 21.2903 7.704C20.6823 8.024 20.2103 8.496 19.8743 9.12C19.5543 9.744 19.3943 10.52 19.3943 11.448V18H17.0903V0.191999H19.3943V8.712L18.9383 7.8C19.3543 6.968 19.9943 6.32 20.8583 5.856C21.7223 5.392 22.7303 5.16 23.8823 5.16ZM41.3222 18V15.312L41.2022 14.808V10.224C41.2022 9.248 40.9142 8.496 40.3382 7.968C39.7782 7.424 38.9302 7.152 37.7942 7.152C37.0422 7.152 36.3062 7.28 35.5862 7.536C34.8662 7.776 34.2582 8.104 33.7622 8.52L32.8022 6.792C33.4582 6.264 34.2422 5.864 35.1542 5.592C36.0822 5.304 37.0502 5.16 38.0582 5.16C39.8022 5.16 41.1462 5.584 42.0902 6.432C43.0342 7.28 43.5062 8.576 43.5062 10.32V18H41.3222ZM37.1462 18.144C36.2022 18.144 35.3702 17.984 34.6502 17.664C33.9462 17.344 33.4022 16.904 33.0182 16.344C32.6342 15.768 32.4422 15.12 32.4422 14.4C32.4422 13.712 32.6022 13.088 32.9222 12.528C33.2582 11.968 33.7942 11.52 34.5302 11.184C35.2822 10.848 36.2902 10.68 37.5542 10.68H41.5862V12.336H37.6502C36.4982 12.336 35.7222 12.528 35.3222 12.912C34.9222 13.296 34.7222 13.76 34.7222 14.304C34.7222 14.928 34.9702 15.432 35.4662 15.816C35.9622 16.184 36.6502 16.368 37.5302 16.368C38.3942 16.368 39.1462 16.176 39.7862 15.792C40.4422 15.408 40.9142 14.848 41.2022 14.112L41.6582 15.696C41.3542 16.448 40.8182 17.048 40.0502 17.496C39.2822 17.928 38.3142 18.144 37.1462 18.144ZM47.7699 18V5.28H49.9779V8.736L49.7619 7.872C50.1139 6.992 50.7059 6.32 51.5379 5.856C52.3699 5.392 53.3939 5.16 54.6099 5.16V7.392C54.5139 7.376 54.4179 7.368 54.3219 7.368C54.2419 7.368 54.1619 7.368 54.0819 7.368C52.8499 7.368 51.8739 7.736 51.1539 8.472C50.4339 9.208 50.0739 10.272 50.0739 11.664V18H47.7699ZM62.9964 18.144C61.6364 18.144 60.4364 17.864 59.3964 17.304C58.3724 16.744 57.5724 15.976 56.9964 15C56.4364 14.024 56.1564 12.904 56.1564 11.64C56.1564 10.376 56.4284 9.256 56.9724 8.28C57.5324 7.304 58.2924 6.544 59.2524 6C60.2284 5.44 61.3244 5.16 62.5404 5.16C63.7724 5.16 64.8604 5.432 65.8044 5.976C66.7484 6.52 67.4844 7.288 68.0124 8.28C68.5564 9.256 68.8284 10.4 68.8284 11.712C68.8284 11.808 68.8204 11.92 68.8044 12.048C68.8044 12.176 68.7964 12.296 68.7804 12.408H57.9564V10.752H67.5804L66.6444 11.328C66.6604 10.512 66.4924 9.784 66.1404 9.144C65.7884 8.504 65.3004 8.008 64.6764 7.656C64.0684 7.288 63.3564 7.104 62.5404 7.104C61.7404 7.104 61.0284 7.288 60.4044 7.656C59.7804 8.008 59.2924 8.512 58.9404 9.168C58.5884 9.808 58.4124 10.544 58.4124 11.376V11.76C58.4124 12.608 58.6044 13.368 58.9884 14.04C59.3884 14.696 59.9404 15.208 60.6444 15.576C61.3484 15.944 62.1564 16.128 63.0684 16.128C63.8204 16.128 64.5004 16 65.1084 15.744C65.7324 15.488 66.2764 15.104 66.7404 14.592L68.0124 16.08C67.4364 16.752 66.7164 17.264 65.8524 17.616C65.0044 17.968 64.0524 18.144 62.9964 18.144Z" fill="#313131"/>
</svg>
