<svg width="1440" height="710" viewBox="0 0 1440 710" fill="none" xmlns="http://www.w3.org/2000/svg">
<rect width="1440" height="710" fill="white"/>
<rect width="1440" height="710" fill="#F1F1F1"/>
<path d="M856.081 282.193C854.542 276.043 851.407 270.408 846.993 265.857C842.579 261.307 837.042 258.002 830.942 256.276C808.653 250.833 719.5 250.833 719.5 250.833C719.5 250.833 630.347 250.833 608.058 256.794C601.958 258.52 596.421 261.825 592.007 266.376C587.593 270.926 584.458 276.561 582.919 282.711C578.84 305.33 576.845 328.276 576.958 351.26C576.813 374.418 578.808 397.539 582.919 420.328C584.616 426.287 587.821 431.708 592.225 436.066C596.629 440.424 602.082 443.573 608.058 445.208C630.347 451.169 719.5 451.169 719.5 451.169C719.5 451.169 808.653 451.169 830.942 445.208C837.042 443.483 842.579 440.177 846.993 435.627C851.407 431.076 854.542 425.442 856.081 419.292C860.128 396.843 862.124 374.071 862.042 351.26C862.187 328.103 860.192 304.982 856.081 282.193V282.193Z" stroke="black" stroke-width="2" stroke-linecap="round" stroke-linejoin="round"/>
<path d="M690.344 393.634L764.854 351.26L690.344 308.887V393.634Z" stroke="black" stroke-width="2" stroke-linecap="round" stroke-linejoin="round"/>
</svg>
