<svg width="32" height="24" viewBox="0 0 32 24" fill="none" xmlns="http://www.w3.org/2000/svg">
<path d="M16 18.25C16.7969 18.25 17.5 18.9531 17.5 19.75C17.5 20.5938 16.7969 21.25 16 21.25C15.1562 21.25 14.5 20.5938 14.5 19.75C14.5 18.9531 15.1562 18.25 16 18.25ZM16 16C13.8906 16 12.25 17.6875 12.25 19.75C12.25 21.8594 13.8906 23.5 16 23.5C18.0625 23.5 19.75 21.8594 19.75 19.75C19.75 17.6875 18.0625 16 16 16ZM25.5625 14.5469C25.7969 14.3125 25.7969 13.9375 25.5625 13.75C20.125 8.78125 11.8281 8.78125 6.39062 13.75C6.15625 13.9375 6.15625 14.3125 6.39062 14.5469L7.14062 15.3438C7.375 15.5781 7.70312 15.5781 7.9375 15.3906C12.4844 11.2656 19.4688 11.2188 24.0156 15.3906C24.25 15.5781 24.5781 15.5781 24.8125 15.3438L25.5625 14.5469ZM30.8125 8.26562C22.4219 0.625 9.48438 0.625 1.14062 8.26562C0.90625 8.45312 0.90625 8.82812 1.14062 9.0625L1.89062 9.85938C2.125 10.0469 2.45312 10.0938 2.6875 9.85938C10.1875 3.0625 21.7656 3.01562 29.2656 9.85938C29.5 10.0938 29.8281 10.0469 30.0625 9.85938L30.8125 9.0625C31.0469 8.82812 31.0469 8.45312 30.8125 8.26562Z" fill="#1776AD"/>
</svg>
